<svg xmlns="http://www.w3.org/2000/svg" width="90" height="90" viewBox="0 0 90 90">
  <path id="Path_1" data-name="Path 1" d="M23.6,43.612a4.89,4.89,0,0,0-.434,6.886l17.6,19.887a4.869,4.869,0,0,0,3.459,1.648h.206A4.836,4.836,0,0,0,47.8,70.677L95.2,25.135V79.5A10.475,10.475,0,0,1,84.682,90H15.675A10.475,10.475,0,0,1,5.2,79.5V10.5A10.475,10.475,0,0,1,15.675,0H84.682A10.475,10.475,0,0,1,95.146,10.475v1.084L44.67,60.116,30.487,44.046a4.869,4.869,0,0,0-6.886-.434Z" transform="translate(-5.2)" fill="#fff"/>
</svg>
