<svg xmlns="http://www.w3.org/2000/svg" width="81.628" height="20.681" viewBox="0 0 81.628 20.681">
  <g id="Tada_Logo-03" data-name="Tada Logo-03" transform="translate(-5.2)" style="isolation: isolate">
    <path id="Path_1" data-name="Path 1" d="M9.428,10.022a1.124,1.124,0,0,0-.1,1.582l4.044,4.57a1.119,1.119,0,0,0,.795.379h.047a1.111,1.111,0,0,0,.775-.311L25.881,5.776V18.269a2.407,2.407,0,0,1-2.417,2.412H7.607A2.407,2.407,0,0,1,5.2,18.269V2.412A2.407,2.407,0,0,1,7.607,0H23.464a2.407,2.407,0,0,1,2.4,2.407v.249L14.27,13.814l-3.259-3.693a1.119,1.119,0,0,0-1.582-.1Z" transform="translate(0 0)" fill="#fff"/>
    <path id="Path_2" data-name="Path 2" d="M112.25,15.55h-4.38V13.18h11.367v2.37h-4.38V27H112.25Z" transform="translate(-77.088 -9.896)" fill="#fff"/>
    <path id="Path_3" data-name="Path 3" d="M155.32,28.866h2.31V38.6h-2.27l-.12-1.42a3.7,3.7,0,0,1-3.157,1.717c-2.883.02-5.013-1.744-5.013-5.173a4.743,4.743,0,0,1,5.073-5.091,3.565,3.565,0,0,1,3.1,1.58Zm-5.843,4.854a2.789,2.789,0,0,0,2.883,2.963c3.79,0,3.79-5.9,0-5.9A2.772,2.772,0,0,0,149.477,33.72Z" transform="translate(-106.52 -21.496)" fill="#fff"/>
    <path id="Path_4" data-name="Path 4" d="M206.352,13.26v13.8H204.11l-.159-1.343a3.534,3.534,0,0,1-3.137,1.56A4.774,4.774,0,0,1,195.8,22.18c0-3.354,2.11-5.091,4.953-5.091a4.029,4.029,0,0,1,3.2,1.56V13.26Zm-8.15,8.92a2.795,2.795,0,1,0,5.586,0,2.776,2.776,0,0,0-2.823-2.841A2.681,2.681,0,0,0,198.2,22.18Z" transform="translate(-143.108 -9.956)" fill="#fff"/>
    <path id="Path_5" data-name="Path 5" d="M252.66,28.866h2.307V38.6H252.7l-.12-1.42a3.7,3.7,0,0,1-3.157,1.717c-2.883.02-5.013-1.744-5.013-5.173a4.743,4.743,0,0,1,5.073-5.091,3.547,3.547,0,0,1,3.1,1.587Zm-5.843,4.854a2.789,2.789,0,0,0,2.883,2.963c3.787,0,3.787-5.9,0-5.9A2.772,2.772,0,0,0,246.817,33.72Z" transform="translate(-179.606 -21.496)" fill="#fff"/>
    <path id="Path_6" data-name="Path 6" d="M297.347,13.18v5.409a3.593,3.593,0,0,1,3.04-1.468c2.763,0,3.987,1.876,3.987,4.734v5.133h-2.407V21.883c0-1.774-.929-2.527-2.213-2.527a2.5,2.5,0,0,0-2.407,2.666v4.983H294.94V13.18Z" transform="translate(-217.546 -9.896)" fill="#fff"/>
  </g>
</svg>
